<?xml version="1.0" standalone="no"?>
<!DOCTYPE svg PUBLIC "-//W3C//DTD SVG 20010904//EN"
 "http://www.w3.org/TR/2001/REC-SVG-20010904/DTD/svg10.dtd">
<svg version="1.0" xmlns="http://www.w3.org/2000/svg"
 width="1218.000000pt" height="1280.000000pt" viewBox="0 0 1218.000000 1280.000000"
 preserveAspectRatio="xMidYMid meet">
<metadata>
Created by potrace 1.15, written by Peter Selinger 2001-2017
</metadata>
<g transform="translate(0.000000,1280.000000) scale(0.100000,-0.100000)"
fill="#000000" stroke="none">
<path d="M7910 12535 l0 -265 77 0 77 0 -46 -29 c-83 -53 -121 -137 -98 -221
15 -57 89 -131 151 -152 l44 -15 5 -108 5 -109 29 -7 c43 -12 93 -66 113 -123
14 -39 18 -82 18 -186 0 -119 -3 -141 -23 -186 -27 -59 -64 -97 -107 -111
l-30 -10 0 -114 0 -114 43 -3 42 -3 0 -4379 0 -4379 -42 -3 -43 -3 0 -114 0
-115 29 -7 c43 -12 93 -66 113 -123 14 -39 18 -82 18 -186 0 -120 -3 -141 -24
-188 -27 -60 -81 -112 -116 -112 -24 0 -24 -1 -27 -112 l-3 -111 -44 -15 c-62
-21 -136 -95 -151 -152 -23 -84 15 -168 98 -221 l46 -29 -77 0 -77 0 0 -265 0
-265 2135 0 2135 0 0 265 0 265 -77 0 -77 0 47 29 c89 57 126 150 93 236 -21
54 -90 118 -149 138 l-42 14 -3 111 -3 112 -26 0 c-39 0 -106 74 -124 136 -9
31 -14 95 -14 179 0 115 3 136 24 183 26 59 69 100 113 109 l29 6 -3 116 -3
116 -42 3 -43 3 0 4379 0 4379 43 3 42 3 3 116 3 117 -35 6 c-45 9 -99 70
-117 134 -9 29 -14 96 -14 177 0 115 3 136 24 183 26 58 69 100 112 109 l28 5
3 111 3 110 42 14 c59 20 128 84 149 138 33 86 -4 179 -93 236 l-47 29 77 0
77 0 0 265 0 265 -2135 0 -2135 0 0 -265z m3950 -6135 l0 -4380 -1815 0 -1815
0 0 4380 0 4380 1815 0 1815 0 0 -4380z"/>
<path d="M8260 10631 c-14 -27 -14 -8435 0 -8462 15 -27 64 -25 84 3 14 20 16
438 16 4228 0 3790 -2 4208 -16 4228 -20 28 -69 30 -84 3z"/>
<path d="M8507 10639 c-9 -5 -24 -23 -32 -39 -13 -26 -15 -512 -15 -4200 0
-3701 2 -4174 15 -4200 30 -57 103 -69 149 -24 l26 27 0 4197 0 4197 -26 27
c-28 28 -83 35 -117 15z"/>
<path d="M8852 10630 c-18 -11 -40 -36 -48 -55 -21 -52 -21 -8298 0 -8350 20
-46 69 -75 129 -75 40 0 53 5 83 33 22 20 38 47 44 72 13 54 13 8236 0 8290
-6 25 -22 52 -44 73 -30 27 -43 32 -83 32 -30 0 -60 -7 -81 -20z"/>
<path d="M9315 10635 c-41 -22 -64 -44 -84 -80 -15 -28 -16 -343 -16 -4155 0
-3909 1 -4127 17 -4157 10 -18 35 -45 55 -60 32 -25 45 -28 108 -28 62 0 76 3
107 27 19 15 43 42 52 61 15 32 16 357 16 4157 0 3800 -1 4125 -16 4157 -27
56 -76 87 -148 91 -43 2 -70 -2 -91 -13z"/>
<path d="M9951 10633 c-19 -9 -49 -32 -67 -52 -69 -71 -64 289 -64 -4181 0
-4471 -6 -4110 64 -4182 52 -54 97 -71 176 -66 82 4 137 38 178 107 l27 46 0
4095 0 4095 -27 46 c-15 25 -46 59 -69 75 -35 24 -54 29 -113 32 -52 2 -80 -2
-105 -15z"/>
<path d="M10605 10627 c-22 -13 -49 -40 -62 -62 l-23 -40 0 -4125 0 -4125 23
-40 c57 -101 214 -116 290 -26 14 17 31 48 37 69 14 52 14 8192 0 8244 -14 48
-55 97 -97 114 -50 21 -122 17 -168 -9z"/>
<path d="M11069 10611 l-39 -39 0 -4172 0 -4172 39 -39 c35 -35 44 -39 91 -39
59 0 101 23 125 70 13 26 15 529 15 4180 0 3651 -2 4154 -15 4180 -24 47 -66
70 -125 70 -47 0 -56 -4 -91 -39z"/>
<path d="M11466 10624 l-26 -27 0 -4197 0 -4197 26 -27 c46 -45 119 -33 149
24 13 26 15 499 15 4200 0 3701 -2 4174 -15 4200 -30 57 -103 69 -149 24z"/>
<path d="M11746 10628 c-14 -20 -16 -438 -16 -4228 0 -3790 2 -4208 16 -4228
20 -28 69 -30 84 -3 7 14 10 1347 10 4231 0 2884 -3 4217 -10 4231 -15 27 -64
25 -84 -3z"/>
<path d="M0 10415 l0 -264 78 -3 77 -3 -47 -28 c-159 -93 -134 -293 47 -368
l55 -23 0 -107 0 -106 29 -6 c43 -9 86 -50 112 -109 22 -48 24 -67 24 -193 0
-125 -3 -145 -23 -191 -27 -60 -67 -102 -108 -113 l-29 -7 -3 -117 -3 -117 46
0 45 0 0 -2260 0 -2260 -45 0 -46 0 3 -117 3 -117 29 -7 c43 -12 93 -66 113
-123 26 -73 25 -280 -1 -354 -21 -62 -74 -120 -117 -129 l-29 -5 0 -107 0
-107 -55 -23 c-181 -75 -206 -275 -47 -368 l47 -28 -77 -3 -78 -3 0 -264 0
-265 2135 0 2135 0 0 265 0 264 -77 3 -78 3 45 27 c84 49 125 138 101 218 -17
59 -81 124 -147 151 l-54 23 0 107 0 107 -32 6 c-40 8 -99 70 -117 122 -7 21
-15 92 -18 156 -5 99 -2 127 15 185 23 75 67 128 118 142 l29 7 3 117 3 117
-46 0 -45 0 0 2260 0 2260 45 0 46 0 -3 117 -3 117 -31 8 c-40 10 -82 52 -108
108 -18 39 -21 64 -21 190 0 131 2 150 24 198 26 59 69 100 112 109 l29 6 0
106 0 107 54 23 c66 27 130 92 147 151 24 80 -17 169 -101 218 l-45 27 78 3
77 3 0 264 0 265 -2135 0 -2135 0 0 -265z m3950 -4015 l0 -2260 -1815 0 -1815
0 0 2260 0 2260 1815 0 1815 0 0 -2260z"/>
<path d="M370 8510 c-28 -53 -31 -233 -28 -2170 3 -1735 5 -1990 18 -2025 19
-51 44 -57 59 -13 27 75 31 321 31 2098 0 1774 -4 2023 -30 2098 -13 36 -34
42 -50 12z"/>
<path d="M608 8508 c-23 -37 -37 -79 -48 -148 -14 -94 -14 -3824 1 -3923 6
-40 21 -93 33 -118 19 -36 27 -44 51 -44 36 0 60 33 80 110 13 52 15 293 15
2015 0 2102 2 2031 -49 2100 -25 34 -64 38 -83 8z"/>
<path d="M957 8503 c-14 -16 -36 -50 -49 -78 l-23 -50 0 -1975 0 -1975 23 -50
c13 -27 35 -62 49 -78 60 -61 137 -16 173 101 20 63 20 101 20 2002 0 1901 0
1939 -20 2002 -36 117 -113 162 -173 101z"/>
<path d="M1408 8505 c-44 -30 -85 -108 -98 -191 -13 -80 -13 -3748 0 -3828 35
-212 196 -286 297 -137 56 83 53 -26 53 2051 0 1669 -2 1923 -15 1967 -41 138
-146 200 -237 138z"/>
<path d="M2048 8510 c-53 -28 -96 -86 -118 -159 -20 -62 -20 -101 -20 -1951 0
-1850 0 -1889 20 -1951 73 -237 332 -239 411 -4 21 59 21 3851 0 3910 -36 106
-117 175 -205 175 -30 -1 -66 -9 -88 -20z"/>
<path d="M2690 8483 c-87 -87 -80 95 -80 -2083 0 -2178 -7 -1996 80 -2083 42
-42 52 -47 92 -47 69 0 121 46 160 140 l23 55 0 1935 0 1935 -23 55 c-39 94
-91 140 -160 140 -40 0 -50 -5 -92 -47z"/>
<path d="M3196 8505 c-41 -38 -66 -106 -76 -203 -13 -115 -13 -3689 0 -3804 5
-48 18 -108 29 -132 68 -154 190 -116 230 72 16 75 16 3849 0 3924 -31 143
-113 208 -183 143z"/>
<path d="M3581 8504 c-47 -60 -46 16 -49 -2064 -2 -1449 0 -1983 8 -2032 20
-113 73 -166 118 -118 11 12 29 52 39 88 17 64 18 157 18 2022 0 1865 -1 1958
-18 2022 -29 104 -74 136 -116 82z"/>
<path d="M3849 8504 c-27 -73 -30 -304 -27 -2189 4 -2089 3 -2040 53 -2040 14
0 23 12 35 45 13 40 15 271 15 2080 0 1808 -2 2040 -15 2080 -19 54 -45 64
-61 24z"/>
</g>
</svg>
